
<svg width="196" height="24" viewBox="0 0 196 24" fill="none" xmlns="http://www.w3.org/2000/svg">
<path fill-rule="evenodd" clip-rule="evenodd" d="M92.9722 21.3838C94.4122 21.3838 95.6722 21.1458 96.7522 20.6698C97.8322 20.1938 98.6742 19.5038 99.2782 18.5998C99.8822 17.6958 100.184 16.6118 100.184 15.3478C100.184 14.4838 100.042 13.7398 99.7582 13.1158C99.4742 12.4918 99.0642 11.9458 98.5282 11.4778C97.9922 11.0098 97.3482 10.5838 96.5962 10.1998C95.8442 9.81584 95.0042 9.42784 94.0762 9.03584C93.6442 8.85984 93.2482 8.69384 92.8882 8.53784C92.5282 8.38184 92.2202 8.21784 91.9642 8.04584C91.7082 7.87384 91.5102 7.66984 91.3702 7.43384C91.2302 7.19784 91.1602 6.91184 91.1602 6.57584C91.1602 6.16784 91.2662 5.79784 91.4782 5.46584C91.6902 5.13384 91.9942 4.86784 92.3902 4.66784C92.7862 4.46784 93.2682 4.36784 93.8362 4.36784C94.3402 4.36784 94.8382 4.43984 95.3302 4.58384C95.8222 4.72784 96.2862 4.91784 96.7222 5.15384C97.1582 5.38984 97.5482 5.65584 97.8922 5.95184L99.5122 2.90384C99.0802 2.53584 98.5522 2.19584 97.9282 1.88384C97.3042 1.57184 96.6322 1.31984 95.9122 1.12784C95.1922 0.935844 94.4722 0.839844 93.7522 0.839844C92.7922 0.839844 91.9222 0.999844 91.1422 1.31984C90.3622 1.63984 89.6902 2.07184 89.1262 2.61584C88.5622 3.15984 88.1282 3.77984 87.8242 4.47584C87.5202 5.17184 87.3682 5.89984 87.3682 6.65984C87.3682 7.29984 87.4782 7.87784 87.6982 8.39384C87.9182 8.90984 88.2162 9.37184 88.5922 9.77984C88.9682 10.1878 89.3982 10.5458 89.8822 10.8538C90.3662 11.1618 90.8762 11.4358 91.4122 11.6758C92.1322 11.9878 92.7742 12.2738 93.3382 12.5338C93.9022 12.7938 94.3782 13.0578 94.7662 13.3258C95.1542 13.5938 95.4482 13.8938 95.6482 14.2258C95.8482 14.5578 95.9482 14.9598 95.9482 15.4318C95.9482 15.9518 95.8242 16.3858 95.5762 16.7338C95.3282 17.0818 94.9902 17.3438 94.5622 17.5198C94.1342 17.6958 93.6402 17.7838 93.0802 17.7838C92.4802 17.7838 91.9142 17.6978 91.3822 17.5258C90.8502 17.3538 90.3562 17.1378 89.9002 16.8778C89.4442 16.6178 89.0322 16.3438 88.6642 16.0558C88.2962 15.7678 87.9802 15.5078 87.7162 15.2758L85.7242 18.4918C85.9802 18.7398 86.3282 19.0278 86.7682 19.3558C87.2082 19.6838 87.7342 20.0018 88.3462 20.3098C88.9582 20.6178 89.6522 20.8738 90.4282 21.0778C91.2042 21.2818 92.0522 21.3838 92.9722 21.3838ZM48.1362 20.9998C49.5442 20.9998 50.8542 20.7498 52.0662 20.2498C53.2782 19.7498 54.3382 19.0498 55.2462 18.1498C56.1542 17.2498 56.8602 16.2018 57.3642 15.0058C57.8682 13.8098 58.1202 12.5118 58.1202 11.1118C58.1202 9.71984 57.8662 8.42384 57.3582 7.22384C56.8502 6.02384 56.1422 4.97184 55.2342 4.06784C54.3262 3.16384 53.2682 2.45984 52.0602 1.95584C50.8522 1.45184 49.5442 1.19984 48.1362 1.19984H42.7002V20.9998H48.1362ZM47.7042 17.5198H46.5882V4.67984H47.7042C48.6002 4.67984 49.4282 4.83984 50.1882 5.15984C50.9482 5.47984 51.6082 5.92984 52.1682 6.50984C52.7282 7.08984 53.1642 7.76984 53.4762 8.54984C53.7882 9.32984 53.9442 10.1798 53.9442 11.0998C53.9442 12.0278 53.7882 12.8818 53.4762 13.6618C53.1642 14.4418 52.7282 15.1198 52.1682 15.6958C51.6082 16.2718 50.9482 16.7198 50.1882 17.0398C49.4282 17.3598 48.6002 17.5198 47.7042 17.5198ZM78.0602 17.5918V20.9998H67.0442V1.19984H78.0602V4.60784H70.9322V9.37184H77.7722V12.7798H70.9322V17.5918H78.0602ZM109.168 1.19984H113.056V20.9998H109.168V1.19984ZM131.748 21.3838C132.916 21.3838 134.044 21.1858 135.132 20.7898C136.22 20.3938 137.196 19.8338 138.06 19.1098C138.924 18.3858 139.606 17.5258 140.106 16.5298C140.606 15.5338 140.856 14.4318 140.856 13.2238V10.2238H131.7V13.2358H136.896V13.5358C136.896 14.1518 136.76 14.7198 136.488 15.2398C136.216 15.7598 135.848 16.2118 135.384 16.5958C134.92 16.9798 134.39 17.2778 133.794 17.4898C133.198 17.7018 132.58 17.8078 131.94 17.8078C131.14 17.8078 130.394 17.6438 129.702 17.3158C129.01 16.9878 128.406 16.5198 127.89 15.9118C127.374 15.3038 126.972 14.5798 126.684 13.7398C126.396 12.8998 126.252 11.9638 126.252 10.9318C126.252 9.98784 126.38 9.11384 126.636 8.30984C126.892 7.50584 127.268 6.80384 127.764 6.20384C128.26 5.60384 128.87 5.13784 129.594 4.80584C130.318 4.47384 131.152 4.30784 132.096 4.30784C133.056 4.30784 134.03 4.48584 135.018 4.84184C136.006 5.19784 136.848 5.69984 137.544 6.34784L139.368 3.33584C138.72 2.79984 137.992 2.34584 137.184 1.97384C136.376 1.60184 135.534 1.31984 134.658 1.12784C133.782 0.935844 132.912 0.839844 132.048 0.839844C130.52 0.839844 129.14 1.10984 127.908 1.64984C126.676 2.18984 125.624 2.93384 124.752 3.88184C123.88 4.82984 123.212 5.92184 122.748 7.15784C122.284 8.39384 122.052 9.70784 122.052 11.0998C122.052 12.5558 122.3 13.9078 122.796 15.1558C123.292 16.4038 123.98 17.4938 124.86 18.4258C125.74 19.3578 126.768 20.0838 127.944 20.6038C129.12 21.1238 130.388 21.3838 131.748 21.3838ZM153.668 7.67984V20.9998H149.78V1.19984H153.668L162.2 14.5198V1.19984H166.088V20.9998H162.2L153.668 7.67984ZM185.032 21.3838C186.416 21.3838 187.712 21.1198 188.92 20.5918C190.128 20.0638 191.188 19.3298 192.1 18.3898C193.012 17.4498 193.726 16.3578 194.242 15.1138C194.758 13.8698 195.016 12.5358 195.016 11.1118C195.016 9.68784 194.758 8.35384 194.242 7.10984C193.726 5.86584 193.012 4.77384 192.1 3.83384C191.188 2.89384 190.128 2.15984 188.92 1.63184C187.712 1.10384 186.416 0.839844 185.032 0.839844C183.648 0.839844 182.352 1.10384 181.144 1.63184C179.936 2.15984 178.876 2.89384 177.964 3.83384C177.052 4.77384 176.338 5.86584 175.822 7.10984C175.306 8.35384 175.048 9.68784 175.048 11.1118C175.048 12.5358 175.306 13.8698 175.822 15.1138C176.338 16.3578 177.052 17.4498 177.964 18.3898C178.876 19.3298 179.936 20.0638 181.144 20.5918C182.352 21.1198 183.648 21.3838 185.032 21.3838ZM182.71 17.1598C183.418 17.4798 184.188 17.6398 185.02 17.6398C185.868 17.6398 186.644 17.4798 187.348 17.1598C188.052 16.8398 188.664 16.3878 189.184 15.8038C189.704 15.2198 190.108 14.5298 190.396 13.7338C190.684 12.9378 190.828 12.0638 190.828 11.1118C190.828 10.1598 190.684 9.28584 190.396 8.48984C190.108 7.69384 189.704 7.00384 189.184 6.41984C188.664 5.83584 188.052 5.38384 187.348 5.06384C186.644 4.74384 185.868 4.58384 185.02 4.58384C184.188 4.58384 183.418 4.74384 182.71 5.06384C182.002 5.38384 181.388 5.83584 180.868 6.41984C180.348 7.00384 179.946 7.69384 179.662 8.48984C179.378 9.28584 179.236 10.1598 179.236 11.1118C179.236 12.0638 179.378 12.9378 179.662 13.7338C179.946 14.5298 180.348 15.2198 180.868 15.8038C181.388 16.3878 182.002 16.8398 182.71 17.1598Z" fill="#333136"/>
<circle cx="12" cy="12" r="12" transform="matrix(0 -1 -1 0 24 24)" fill="url(#paint0_angular_0_10581)"/>
<defs>
<radialGradient id="paint0_angular_0_10581" cx="0" cy="0" r="1" gradientUnits="userSpaceOnUse" gradientTransform="translate(12 12) scale(12)">
<stop stop-color="#E7816B" stop-opacity="0.01"/>
<stop offset="0.999287" stop-color="#E7816B"/>
</radialGradient>
</defs>
</svg>
